<?xml version="1.0" encoding="iso-8859-1"?>
<!-- Generator: Adobe Illustrator 19.0.0, SVG Export Plug-In . SVG Version: 6.00 Build 0)  -->
<svg version="1.1" id="Layer_1" xmlns="http://www.w3.org/2000/svg" xmlns:xlink="http://www.w3.org/1999/xlink" x="0px" y="0px"
	 viewBox="0 0 512.002 512.002" style="enable-background:new 0 0 512.002 512.002;" xml:space="preserve">
<path style="fill:#C9D1E3;" d="M380.48,223.568l0.212,0.234c1.577,1.733,5.885,6.119,11.816,9.398l0.213,0.104
	c0.343,0.143,0.666,0.313,0.961,0.506l0.218,0.126c4.311,2.156,8.623,3.25,12.817,3.25h0.001c1.42,0,2.842-0.127,4.23-0.379
	l2.828-0.512l-11.164-22.786l-8.294,1.689c-0.398,0.08-0.803,0.122-1.202,0.122c-2.823,0-5.28-2.012-5.845-4.782
	c-0.656-3.229,1.434-6.39,4.661-7.047l5.246-1.067l-9.521-19.432l-8.542,1.742c-0.395,0.08-0.799,0.122-1.199,0.122
	c-2.822,0-5.28-2.012-5.844-4.782c-0.319-1.563-0.011-3.157,0.87-4.489c0.88-1.331,2.227-2.238,3.789-2.557l5.496-1.12
	l-9.522-19.433l-8.79,1.792c-0.395,0.08-0.799,0.122-1.199,0.122c-2.822,0-5.28-2.012-5.844-4.782
	c-0.319-1.563-0.01-3.157,0.871-4.489c0.88-1.331,2.225-2.24,3.788-2.558l5.741-1.172l-9.52-19.43l-9.037,1.843
	c-0.396,0.08-0.8,0.122-1.2,0.122c-2.822,0-5.28-2.011-5.844-4.781c-0.319-1.563-0.011-3.157,0.87-4.489
	c0.881-1.33,2.225-2.241,3.788-2.558l5.992-1.223l-6.596-13.46l-1.602,0.274c-3.755,0.642-9.682,1.405-16.587,1.405
	c-1.195,0-2.378-0.025-3.554-0.068l-3.603-0.134l59.962,124.391L380.48,223.568z"/>
<g style="opacity:0.19;">
	<path style="fill:#202121;" d="M380.48,223.568l0.212,0.234c1.577,1.733,5.885,6.119,11.816,9.398l0.213,0.104
		c0.343,0.143,0.666,0.313,0.961,0.506l0.218,0.126c4.311,2.156,8.623,3.25,12.817,3.25h0.001c1.42,0,2.842-0.127,4.23-0.379
		l2.828-0.512l-11.164-22.786l-8.294,1.689c-0.398,0.08-0.803,0.122-1.202,0.122c-2.823,0-5.28-2.012-5.845-4.782
		c-0.656-3.229,1.434-6.39,4.661-7.047l5.246-1.067l-9.521-19.432l-8.542,1.742c-0.395,0.08-0.799,0.122-1.199,0.122
		c-2.822,0-5.28-2.012-5.844-4.782c-0.319-1.563-0.011-3.157,0.87-4.489c0.88-1.331,2.227-2.238,3.789-2.557l5.496-1.12
		l-9.522-19.433l-8.79,1.792c-0.395,0.08-0.799,0.122-1.199,0.122c-2.822,0-5.28-2.012-5.844-4.782
		c-0.319-1.563-0.01-3.157,0.871-4.489c0.88-1.331,2.225-2.24,3.788-2.558l5.741-1.172l-9.52-19.43l-9.037,1.843
		c-0.396,0.08-0.8,0.122-1.2,0.122c-2.822,0-5.28-2.011-5.844-4.781c-0.319-1.563-0.011-3.157,0.87-4.489
		c0.881-1.33,2.225-2.241,3.788-2.558l5.992-1.223l-6.596-13.46l-1.602,0.274c-3.755,0.642-9.682,1.405-16.587,1.405
		c-1.195,0-2.378-0.025-3.554-0.068l-3.603-0.134l59.962,124.391L380.48,223.568z"/>
</g>
<path style="fill:#C9D1E3;" d="M497.241,278.917l-0.189-1.185l-74.147-31.664l-0.868-0.371l-0.863,0.382
	c-2.607,1.152-5.255,1.986-7.868,2.477l-3.587,0.674l2.303,2.832c1.227,1.51,2.394,3.027,3.467,4.511
	c10.239,14.154,13.649,27.002,10.141,38.186l-0.697,2.22l2.262,0.542c14.401,3.456,27.448,5.207,38.78,5.207h0.002
	c12.103,0,22.202-1.998,30.018-5.939l0.964-0.485l0.194-1.062C498.343,288.768,497.857,282.792,497.241,278.917z"/>
<g style="opacity:0.19;">
	<path style="fill:#202121;" d="M434.321,250.943l-11.416-4.875l-0.868-0.371l-0.863,0.382c-2.607,1.152-5.255,1.986-7.868,2.477
		l-3.587,0.674l2.303,2.832c1.227,1.51,2.394,3.027,3.467,4.511c10.239,14.154,13.649,27.002,10.141,38.186l-0.697,2.22l2.262,0.542
		c7.503,1.801,14.629,3.127,21.345,3.996C451.177,286.295,446.408,269.335,434.321,250.943z"/>
</g>
<path style="fill:#C9D1E3;" d="M299.604,377.337c-1.139,1.499-2.875,2.358-4.762,2.358c-1.313,0-2.561-0.421-3.609-1.219
	c-1.271-0.967-2.089-2.369-2.304-3.95c-0.215-1.58,0.199-3.151,1.164-4.421l3.241-4.264l-19.965-8.339l-5.275,6.937
	c-1.139,1.499-2.874,2.358-4.762,2.358c-1.313,0-2.561-0.421-3.609-1.219c-1.271-0.967-2.089-2.369-2.304-3.95
	c-0.215-1.58,0.199-3.151,1.164-4.421l3.393-4.463l-19.967-8.34l-5.428,7.139c-1.138,1.499-2.873,2.358-4.76,2.358
	c-1.313,0-2.56-0.421-3.609-1.219c-1.27-0.967-2.089-2.369-2.304-3.949c-0.215-1.581,0.199-3.151,1.164-4.421l3.548-4.667
	l-19.966-8.34l-5.583,7.34c-1.139,1.499-2.874,2.358-4.762,2.358c-1.314,0-2.561-0.421-3.609-1.219
	c-2.622-1.994-3.133-5.75-1.139-8.371l3.699-4.866l-13.819-5.772l-1.024,1.264c-2.915,3.6-7.755,9.002-14.254,14.282l-2.798,2.273
	l127.052,54.032l0.291,0.123l0.314,0.036c1.144,0.129,2.992,0.285,5.31,0.285h0.001c3.435,0,6.731-0.339,9.792-1.007l0.225-0.063
	c0.34-0.113,0.683-0.195,1.022-0.244l0.239-0.048c6.291-1.642,11.248-4.697,14.738-9.082l1.789-2.248l-23.413-9.779L299.604,377.337
	z"/>
<g style="opacity:0.19;">
	<path style="fill:#202121;" d="M299.604,377.337c-1.139,1.499-2.875,2.358-4.762,2.358c-1.313,0-2.561-0.421-3.609-1.219
		c-1.271-0.967-2.089-2.369-2.304-3.95c-0.215-1.58,0.199-3.151,1.164-4.421l3.241-4.264l-19.965-8.339l-5.275,6.937
		c-1.139,1.499-2.874,2.358-4.762,2.358c-1.313,0-2.561-0.421-3.609-1.219c-1.271-0.967-2.089-2.369-2.304-3.95
		c-0.215-1.58,0.199-3.151,1.164-4.421l3.393-4.463l-19.967-8.34l-5.428,7.139c-1.138,1.499-2.873,2.358-4.76,2.358
		c-1.313,0-2.56-0.421-3.609-1.219c-1.27-0.967-2.089-2.369-2.304-3.949c-0.215-1.581,0.199-3.151,1.164-4.421l3.548-4.667
		l-19.966-8.34l-5.583,7.34c-1.139,1.499-2.874,2.358-4.762,2.358c-1.314,0-2.561-0.421-3.609-1.219
		c-2.622-1.994-3.133-5.75-1.139-8.371l3.699-4.866l-13.819-5.772l-1.024,1.264c-2.915,3.6-7.755,9.002-14.254,14.282l-2.798,2.273
		l127.052,54.032l0.291,0.123l0.314,0.036c1.144,0.129,2.992,0.285,5.31,0.285h0.001c3.435,0,6.731-0.339,9.792-1.007l0.225-0.063
		c0.34-0.113,0.683-0.195,1.022-0.244l0.239-0.048c6.291-1.642,11.248-4.697,14.738-9.082l1.789-2.248l-23.413-9.779
		L299.604,377.337z"/>
</g>
<path style="fill:#C9D1E3;" d="M428.344,384.807l-0.576-0.446l-87.742-1.135l-0.617,1.185c-1.978,3.795-4.57,7.139-7.705,9.939
	l-8.041,2.331l4.812,2.987c16.682,8.535,30.371,17.728,38.265,37.151l10.338,2.109l2.106-0.572
	c33.721-9.166,54.313-22.053,61.204-38.3l0.431-1.017l-0.566-0.947C436.325,391.528,431.106,386.951,428.344,384.807z"/>
<g style="opacity:0.19;">
	<path style="fill:#202121;" d="M401.054,431.055l-2.474,0.673l-0.66-2.479c-6.106-22.93-31.591-37.465-51.893-45.62l-0.841-0.337
		l-5.158-0.066l-0.617,1.185c-1.978,3.795-4.57,7.139-7.705,9.939l-3.23,5.318l0,0c15.049,7.501,31.961,19.741,37.159,39.261h11.443
		l2.106-0.572c8.426-2.29,16.032-4.814,22.809-7.563C401.678,430.88,401.37,430.969,401.054,431.055z"/>
</g>
<path style="fill:#E23E2D;" d="M166.54,172.003c20.231,18.178,37.9,28.187,46.435,30.041l1.151,0.25l0.837-0.828
	c17.03-16.835,4.099-36.686,2.569-38.895L140.241,78.46l-1.537,0.987c-3.253,2.09-6.342,4.111-9.178,6.006
	c-8.682,5.803-11.07,14.668-7.299,27.104C127.354,129.455,143.92,151.677,166.54,172.003z"/>
<g style="opacity:0.19;">
	<path style="fill:#202121;" d="M188.565,178.362c-22.621-20.326-39.186-42.548-44.313-59.443
		c-3.772-12.436-1.384-21.301,7.299-27.104c0.195-0.13,0.4-0.265,0.597-0.396l-11.906-12.957l-1.537,0.987
		c-3.253,2.09-6.342,4.111-9.178,6.006c-8.682,5.803-11.07,14.668-7.299,27.104c5.126,16.897,21.692,39.119,44.313,59.443
		c20.231,18.178,37.9,28.187,46.435,30.041l1.151,0.25l0.837-0.828c0.573-0.568,1.108-1.138,1.615-1.712
		C208.479,194.733,198.857,187.611,188.565,178.362z"/>
</g>
<path style="fill:#C9D1E3;" d="M357.334,203.064L305.917,96.402l-0.949-0.263c-3.279-0.908-6.474-2.038-9.498-3.355l-5.446-2.375
	l46.697,94.595L357.334,203.064z"/>
<path style="fill:#E23E2D;" d="M481.035,313.62c-4.712,0.696-9.758,1.048-15.009,1.048c-15.071,0-32.624-2.788-52.075-8.26
	l-0.163-0.049c-5.423-1.528-11.002-3.265-16.583-5.163c-38.813-13.202-74.558-32.725-87.542-42.372
	c-14.28-10.608-31.112-14.582-42.715-16.046l-3.985-0.503l1.76,3.609c9.731,19.962,33.878,39.566,67.997,55.2
	c34.938,16.009,76.538,25.956,108.562,25.956h0.011c4.452,0,8.706-0.195,12.646-0.58c11.86-1.158,21.489-4.147,28.618-8.882
	l8.097-5.377L481.035,313.62z M441.282,324.869L441.282,324.869L441.282,324.869L441.282,324.869z"/>
<path style="fill:#F04C35;" d="M226.892,155.12c6.45,8.749,14.392,28.38,3.243,46.473l-1.4,2.273l2.511,0.909
	c13.258,4.798,21.584,15.824,26.235,24.23l0.588,1.061l1.213,0.056c10.183,0.468,36.173,3.267,57.505,19.112
	c12.36,9.182,46.674,27.864,84.264,40.652c3.297,1.121,6.732,2.227,10.207,3.283l2.016,0.614l0.674-1.997
	c6.343-18.799-21.134-43.158-26.707-47.852l-0.364-0.248c-5.837-3.166-11.527-7.721-15.611-12.5l-0.102-0.118l-43.215-37.863
	c-0.592-0.518-1.07-1.14-1.421-1.848L267.972,72.734c-0.375-0.759-0.579-1.58-0.608-2.442l-0.022-0.63l-0.355-0.521
	c-11.818-17.331-11.075-34.717-9.581-43.538l0.201-1.178l-9.069-8.153l-1.342,0.716c-16.329,8.709-58.217,31.366-94.423,53.63
	l-2.244,1.38l75.956,82.628C226.629,154.782,226.766,154.949,226.892,155.12z"/>
<g style="opacity:0.19;">
	<path style="fill:#202121;" d="M256.619,33.499c0.103-3.06,0.423-5.736,0.789-7.897l0.201-1.178l-9.069-8.153l-1.342,0.716
		c-16.329,8.709-58.217,31.366-94.423,53.63l-2.244,1.38l13.146,14.302C199.083,64.555,239.748,42.509,256.619,33.499z"/>
</g>
<path style="fill:#F04C35;" d="M273.621,453.328c17.884-1.201,55.096-3.703,89.592-11.113l2.27-0.487l5.402-2.799
	c-5.358-18.767-37.989-39.724-54.85-44.102l-3.863,8.979l-0.493,0.101c-3.742,0.765-7.618,1.152-11.518,1.152
	c-2.52,0-4.979-0.169-7.307-0.504l-0.154-0.023h-57.504c-0.789,0,0.729-5.672,0-5.974l-97.738-41.633
	c-0.782-0.325-28.248-4.285-28.835-4.914l-0.431-0.462l-0.611-0.159c-20.306-5.244-31.207-18.809-35.898-26.43l-0.627-1.017
	l-12.193-0.159l-0.539,1.424C51.779,342.529,35.2,387.19,22.647,427.776l-0.779,2.517l111.584,12.092
	c0.213,0.023,0.425,0.058,0.631,0.102c10.62,2.331,29.535,11.868,33.065,32.832l0.443,2.627l2.483-0.962
	c10.306-3.993,22.814-3.688,35.692,0.929l1.142,0.409l0.947-0.757c7.966-6.361,29.356-21.39,55.863-23.532
	C266.365,453.817,269.706,453.592,273.621,453.328z"/>
<g style="opacity:0.19;">
	<path style="fill:#202121;" d="M155.806,442.485c-0.206-0.045-0.418-0.079-0.631-0.102L43.591,430.291l0.779-2.517
		c11.048-35.718,25.209-74.583,32.908-95.197c-2.409-2.798-4.264-5.45-5.597-7.615l-0.627-1.017l-12.193-0.159l-0.539,1.424
		c-6.544,17.317-23.122,61.978-35.676,102.564l-0.779,2.517l111.584,12.092c0.213,0.023,0.425,0.058,0.631,0.102
		c10.62,2.331,29.535,11.868,33.065,32.832l0.443,2.627l2.483-0.962c5.639-2.185,11.941-3.074,18.599-2.683
		C184.71,454.048,166.252,444.776,155.806,442.485z"/>
	<path style="fill:#202121;" d="M314.422,404.531l0.154,0.023c0.21,0.03,0.427,0.052,0.64,0.079
		c-0.878-0.25-1.736-0.488-2.556-0.702l-0.488-0.127l-0.493,0.101c-1.256,0.256-2.53,0.454-3.811,0.626L314.422,404.531
		L314.422,404.531z"/>
	<path style="fill:#202121;" d="M196.911,475.408c2.917,0.607,5.877,1.433,8.857,2.502l1.142,0.409l0.947-0.757
		c1.12-0.895,2.514-1.965,4.142-3.142C206.712,473.949,201.634,474.28,196.911,475.408z"/>
</g>
<path style="fill:#C9D1E3;" d="M153.997,346.699c-3.052,1.475-6.198,2.733-9.349,3.735l-2.194,9.706l84.925,35.182l36.41-2.736
	L154.885,346.27L153.997,346.699z"/>
<path style="fill:#E23E2D;" d="M372.565,452.433c-36.461,8.667-76.586,11.367-98.141,12.817c-3.854,0.257-7.141,0.479-9.744,0.69
	c-17.694,1.429-33.053,9.596-42.822,16.196l-3.167,2.14l3.46,1.626c15.436,7.256,36.893,11.091,62.052,11.091
	c58.01-0.001,118.628-19.722,144.137-46.892c8.975-9.557,14.441-18.974,16.248-27.991l1.452-7.242l-5.141,5.302
	C427.507,433.983,404.517,444.837,372.565,452.433z"/>
<g style="opacity:0.19;">
	<path style="fill:#202121;" d="M304.542,479.992c-23.648,0-44.025-3.39-59.207-9.824c-9.419,3.309-17.497,7.93-23.476,11.969
		l-3.167,2.14l3.46,1.626c15.436,7.256,36.893,11.091,62.052,11.091c58.01-0.001,118.628-19.722,144.137-46.892
		c0.726-0.773,1.421-1.544,2.101-2.316C400.065,467.09,351.454,479.99,304.542,479.992z"/>
	<path style="fill:#202121;" d="M445.977,415.186l0.064-0.318l-0.647,0.667C445.586,415.417,445.787,415.303,445.977,415.186z"/>
</g>
<path style="fill:#E23E2D;" d="M131.941,454.257L18.392,441.931l-0.505,1.755c-1.067,3.707-2.058,7.262-2.944,10.566
	c-1.755,6.537-0.728,12.168,3.143,17.214c10.786,14.061,44.862,23.509,84.792,23.509c25.67,0,44.443-4.028,51.66-8.021l1.03-0.569
	l0.086-1.173C157.353,461.87,136.199,455.331,131.941,454.257z"/>
<g style="opacity:0.19;">
	<path style="fill:#202121;" d="M40.738,471.464c-3.87-5.046-4.898-10.677-3.143-17.214c0.836-3.115,1.767-6.457,2.764-9.936
		l-21.969-2.384l-0.505,1.755c-1.067,3.707-2.058,7.262-2.944,10.566c-1.755,6.537-0.728,12.168,3.143,17.214
		c10.786,14.061,44.862,23.509,84.792,23.509c3.898,0,7.634-0.095,11.199-0.266C79.201,493.091,50.477,484.16,40.738,471.464z"/>
</g>
<g>
	<path style="fill:#202121;" d="M454.57,394.903c-0.033-0.065-0.062-0.131-0.097-0.195c-7.178-14.605-19.732-22.737-20.418-23.172
		c-1.276-0.809-2.751-1.248-4.262-1.267l-92.081-1.191L186.52,305.922c-3.621-1.514-7.82-0.209-9.969,3.077
		c-0.199,0.304-20.244,30.415-51.655,30.415l-0.651-0.004c-30.86-0.398-41.653-23.685-42.076-24.629
		c-1.275-2.946-4.161-4.867-7.37-4.909l-19.927-0.259c-0.036-0.001-0.071-0.001-0.106-0.001c-3.365,0-6.389,2.071-7.601,5.219
		c-0.278,0.723-25.166,65.498-40.839,118.101c-0.011,0.034-0.02,0.067-0.03,0.101c-1.802,6.052-3.484,11.945-4.991,17.557
		c-2.887,10.757-0.958,20.947,5.577,29.468c20.665,26.941,78.701,29.034,95.996,29.034c11.438,0,49.542-0.969,63.441-13.241
		c0.081-0.066,0.161-0.135,0.239-0.204c0.049-0.045,0.104-0.086,0.152-0.13c5.229-4.853,11.439-7.212,18.989-7.212
		c11.246,0,21.253,5.407,22.155,5.906c22.437,13.964,53.89,16.9,76.35,16.9c51.159-0.001,121.308-16.069,154.431-51.346
		c15.633-16.648,22.499-33.479,20.41-50.023C458.349,404.237,456.701,399.284,454.57,394.903z M186.11,323.408l9.725,4.062l-2,2.629
		c-2.723,3.581-2.028,8.691,1.553,11.415c1.474,1.121,3.206,1.662,4.926,1.662c2.458,0,4.886-1.108,6.49-3.215l4.565-6.003
		l15.825,6.61l-1.847,2.431c-2.723,3.581-2.028,8.691,1.554,11.414c1.474,1.121,3.206,1.662,4.924,1.662
		c2.458,0,4.888-1.109,6.491-3.216l4.412-5.802l15.825,6.61l-1.693,2.227c-2.724,3.581-2.028,8.692,1.553,11.415
		c1.474,1.121,3.206,1.662,4.924,1.662c2.458,0,4.888-1.108,6.491-3.215l4.259-5.6l15.824,6.609l-1.541,2.027
		c-2.724,3.581-2.028,8.692,1.553,11.415c1.474,1.121,3.206,1.662,4.924,1.662c2.459,0,4.888-1.108,6.491-3.215l4.107-5.4
		l19.211,8.024c-8.704,10.938-25.332,9.814-29.382,9.353L171.54,338.01C178.046,332.719,182.957,327.299,186.11,323.408z
		 M19.809,470.144c-3.479-4.536-4.359-9.407-2.77-15.328c0.916-3.411,1.899-6.931,2.934-10.528l111.436,12.077
		c3.848,0.971,23.652,7.054,22.078,28.689c-7.2,3.983-25.856,7.749-50.61,7.749C63.587,492.801,30.204,483.695,19.809,470.144z
		 M169.292,474.955c-3.658-21.722-23.016-32.019-34.743-34.592c-0.287-0.063-0.576-0.111-0.868-0.141L24.723,428.415
		c12.73-41.16,29.838-87.105,35.632-102.437l9.476,0.123c4.676,7.596,16.001,21.917,37.204,27.394
		c0.769,0.821,1.715,1.5,2.822,1.958l45.049,18.662c1.019,0.424,2.076,0.622,3.114,0.622c3.196,0,6.23-1.893,7.529-5.031
		c1.721-4.155-0.252-8.921-4.409-10.643l-15.836-6.56c3.388-1.079,6.601-2.382,9.636-3.85l98.188,41.758h-16.314l-50.705-21.004
		c-4.156-1.726-8.92,0.251-10.643,4.409c-1.722,4.155,0.252,8.921,4.409,10.643l52.202,21.625c0.988,0.409,2.047,0.62,3.117,0.62
		h57.349c2.244,0.323,4.812,0.526,7.615,0.526c13.585,0,32.211-4.623,41.175-21.815l85.677,1.109
		c2.602,2.02,7.628,6.419,11.375,12.684c-7.555,17.815-31.683,29.42-59.805,37.061c-3.444-12.862-14.06-24.398-31.176-33.675
		c-3.959-2.143-8.899-0.674-11.044,3.28c-2.144,3.957-0.676,8.9,3.279,11.044c9.234,5.005,20.143,12.879,23.116,23.175
		c-34.316,7.37-70.93,9.836-89.282,11.07c-3.927,0.264-7.279,0.49-9.931,0.704c-26.885,2.171-48.426,17.116-57.044,24
		c-5.475-1.963-12.815-3.851-20.802-3.851C179.82,472.014,174.34,473,169.292,474.955z M426.757,448.613
		c-25.137,26.773-85.09,46.206-142.553,46.207c-24.822,0-46.134-3.836-61.128-10.884c9.224-6.233,24.363-14.425,41.781-15.831
		c2.594-0.209,5.872-0.43,9.713-0.688c21.619-1.454,61.861-4.161,98.498-12.872c32.48-7.722,55.691-18.733,69.391-32.864
		C440.732,430.291,435.493,439.31,426.757,448.613z"/>
	<path style="fill:#202121;" d="M510.095,302.02c4.225-15.714,0.142-30.102-0.087-30.884c-0.685-2.334-2.379-4.24-4.617-5.196
		l-77.603-33.141l-71.46-145.835c-1.729-3.527-5.747-5.311-9.526-4.257c-0.081,0.023-8.247,2.268-19.266,2.268
		c-11.268,0-27.375-2.406-40.116-13.863c-22.949-20.638-15.719-45.266-15.416-46.255c0.983-3.055,0.079-6.404-2.308-8.551
		L254.877,2.98c-2.534-2.279-6.218-2.739-9.234-1.155c-0.686,0.361-62.089,32.678-108.542,61.914
		c-0.034,0.021-0.067,0.042-0.101,0.064c-5.342,3.363-10.488,6.685-15.316,9.912c-13.936,9.312-18.54,24.563-12.965,42.941
		c8.422,27.758,36.644,55.297,48.387,65.848c18.411,16.542,43.691,34.201,59.05,34.003c0.034,0,0.068,0.005,0.102,0.005
		c0.017,0,0.035-0.004,0.052-0.004c0.059-0.001,0.119,0.003,0.177,0.001c17.507-0.516,26.866,15.139,30.292,22.502
		c0.099,0.248,0.209,0.489,0.33,0.723c0.669,1.498,1.057,2.558,1.175,2.895c17.992,59.246,128.026,98.534,193.009,98.529
		c4.91,0,9.626-0.217,14.017-0.646c22.728-2.22,38.984-10.353,48.315-24.173c3.103-4.595,5.125-9.403,6.41-14.098
		C510.055,302.169,510.078,302.095,510.095,302.02z M495.018,294.849c-14.758,7.443-38.051,7.581-67.316,0.56
		c3.041-9.691,1.954-22.955-10.454-40.109c-1.152-1.593-2.342-3.132-3.542-4.608c2.747-0.517,5.537-1.385,8.346-2.626l73.043,31.193
		C495.661,282.811,496.16,288.622,495.018,294.849z M304.387,98.232l46.361,96.175l-12.271-10.753l-43.876-88.879
		C297.733,96.141,300.999,97.294,304.387,98.232z M344.489,99.83l4.644,9.479l-3.238,0.66c-4.409,0.898-7.253,5.201-6.354,9.61
		c0.787,3.859,4.183,6.52,7.973,6.52c0.54,0,1.087-0.054,1.637-0.166l7.389-1.506l7.545,15.399l-2.989,0.609
		c-4.409,0.898-7.253,5.2-6.355,9.609c0.787,3.86,4.182,6.521,7.973,6.521c0.539,0,1.087-0.054,1.636-0.166l7.142-1.456l7.546,15.4
		l-2.742,0.559c-4.409,0.898-7.254,5.2-6.355,9.609c0.787,3.86,4.182,6.521,7.973,6.521c0.539,0,1.087-0.054,1.636-0.166
		l6.895-1.405l7.545,15.399l-2.492,0.507c-4.409,0.898-7.254,5.199-6.357,9.609c0.787,3.86,4.183,6.522,7.974,6.522
		c0.539,0,1.086-0.054,1.635-0.165l6.648-1.354l9.16,18.695c-5.749,1.042-11.149-0.406-15.688-2.676
		c-0.423-0.277-0.863-0.505-1.316-0.695c-5.648-3.124-9.773-7.326-11.258-8.958l-58.396-121.147
		c1.202,0.046,2.413,0.071,3.634,0.071C334.364,101.267,340.276,100.549,344.489,99.83z M124.308,111.927
		c-4.606-15.183,1.462-21.349,6.427-24.667c2.937-1.963,5.995-3.962,9.145-5.986l75.869,82.534
		c1.855,2.675,13.298,20.683-2.311,36.112c-8.475-1.841-25.994-12.059-45.443-29.535
		C145.654,150.315,129.323,128.461,124.308,111.927z M231.985,202.731c11.551-18.746,3.779-39.239-3.344-48.9
		c-0.175-0.236-0.362-0.463-0.559-0.678L153.91,72.468c36.699-22.567,79.845-45.851,94.308-53.564l7.047,6.336
		c-1.49,8.796-2.411,27.03,9.928,45.125c0.037,1.124,0.301,2.258,0.831,3.332l58.56,118.625c0.474,0.959,1.132,1.816,1.937,2.52
		l43.095,37.759c3.605,4.216,9.264,9.221,16.228,12.998c4.098,3.451,32.011,27.819,26.046,45.495
		c-3.321-1.01-6.698-2.092-10.141-3.263c-37.37-12.712-71.423-31.242-83.668-40.34c-21.639-16.073-47.672-19.034-58.702-19.54
		C254.704,219.5,246.01,207.808,231.985,202.731z M453.726,324.298c-3.867,0.378-8.05,0.569-12.434,0.569
		c-31.736,0.002-72.992-9.868-107.668-25.758c-33.682-15.435-57.522-34.841-66.948-54.176c11.014,1.391,27.658,5.208,41.692,15.634
		c13.096,9.729,49.099,29.406,88.138,42.685c5.298,1.802,10.902,3.567,16.693,5.197c0.023,0.008,0.046,0.011,0.068,0.018
		c16.921,4.762,35.452,8.372,52.767,8.371c5.246,0,10.376-0.341,15.319-1.072C474.527,320.303,465.297,323.169,453.726,324.298z"/>
</g>
<g>
</g>
<g>
</g>
<g>
</g>
<g>
</g>
<g>
</g>
<g>
</g>
<g>
</g>
<g>
</g>
<g>
</g>
<g>
</g>
<g>
</g>
<g>
</g>
<g>
</g>
<g>
</g>
<g>
</g>
</svg>
