<?xml version="1.0" encoding="iso-8859-1"?>
<!-- Generator: Adobe Illustrator 19.0.0, SVG Export Plug-In . SVG Version: 6.00 Build 0)  -->
<svg version="1.1" id="Layer_1" xmlns="http://www.w3.org/2000/svg" xmlns:xlink="http://www.w3.org/1999/xlink" x="0px" y="0px"
	 viewBox="0 0 512.001 512.001" style="enable-background:new 0 0 512.001 512.001;" xml:space="preserve">
<g>
	<path style="fill:#F04C35;" d="M132.068,338.046h-31.456c-7.407,0-13.433,6.027-13.433,13.434v133.083
		c0,7.406,6.026,13.432,13.433,13.432h31.456c7.406,0,13.431-6.026,13.431-13.432V351.479
		C145.499,344.072,139.474,338.046,132.068,338.046z"/>
	<path style="fill:#F04C35;" d="M145.484,293.179H87.197l1.752,3.191c3.346,6.099,7.153,15.857,6.276,27.708l-0.194,2.607
		l2.595-0.308c1.022-0.122,2.027-0.183,2.987-0.183h31.456c0.96,0,1.963,0.061,2.984,0.183l2.597,0.308l-0.194-2.607
		c-0.876-11.855,2.929-21.61,6.276-27.707L145.484,293.179z"/>
	<rect x="350.833" y="248.318" style="fill:#F04C35;" width="89.661" height="33.012"/>
	<path style="fill:#F04C35;" d="M424.809,293.179h-58.29l1.753,3.192c3.347,6.096,7.153,15.853,6.277,27.707l-0.193,2.607
		l2.595-0.308c1.02-0.122,2.024-0.183,2.982-0.183h31.456c0.96,0,1.964,0.061,2.988,0.183l2.594,0.308l-0.193-2.607
		c-0.876-11.855,2.931-21.611,6.277-27.707L424.809,293.179z"/>
	<rect x="71.508" y="248.318" style="fill:#F04C35;" width="89.661" height="33.012"/>
	<path style="fill:#F04C35;" d="M411.39,338.046h-31.456c-7.406,0-13.431,6.027-13.431,13.434v133.083
		c0,7.406,6.025,13.432,13.431,13.432h31.456c7.407,0,13.433-6.026,13.433-13.432V351.479
		C424.823,344.072,418.797,338.046,411.39,338.046z"/>
</g>
<g style="opacity:0.19;">
	<path style="fill:#202121;" d="M103.341,484.562V351.479c0-7.407,6.026-13.434,13.433-13.434h-16.161
		c-7.407,0-13.433,6.027-13.433,13.434v133.083c0,7.406,6.026,13.432,13.433,13.432h16.161
		C109.366,497.994,103.341,491.968,103.341,484.562z"/>
</g>
<g style="opacity:0.19;">
	<path style="fill:#202121;" d="M111.385,324.078c0.876-11.851-2.929-21.609-6.276-27.708l-1.752-3.191H87.197l1.752,3.191
		c3.346,6.099,7.153,15.857,6.276,27.708l-0.194,2.607l2.595-0.308c1.022-0.122,2.027-0.183,2.987-0.183h10.616L111.385,324.078z"/>
	<path style="fill:#202121;" d="M132.068,326.194c0.96,0,1.963,0.061,2.984,0.183l2.597,0.308l-0.037-0.491L132.068,326.194
		L132.068,326.194z"/>
</g>
<g style="opacity:0.19;">
	<rect x="350.833" y="248.318" style="fill:#202121;" width="16.161" height="33.012"/>
</g>
<g style="opacity:0.19;">
	<path style="fill:#202121;" d="M390.709,324.078c0.876-11.855-2.931-21.611-6.277-27.707l-1.753-3.192h-16.161l1.753,3.192
		c3.347,6.096,7.153,15.853,6.277,27.707l-0.193,2.607l2.595-0.308c1.02-0.122,2.024-0.183,2.982-0.183h10.62L390.709,324.078z"/>
	<path style="fill:#202121;" d="M411.39,326.194c0.96,0,1.964,0.061,2.988,0.183l2.594,0.308l-0.037-0.491L411.39,326.194
		L411.39,326.194z"/>
</g>
<g style="opacity:0.19;">
	<rect x="71.508" y="248.318" style="fill:#202121;" width="16.161" height="33.012"/>
</g>
<g style="opacity:0.19;">
	<path style="fill:#202121;" d="M382.664,484.562V351.479c0-7.407,6.025-13.434,13.431-13.434h-16.161
		c-7.406,0-13.431,6.027-13.431,13.434v133.083c0,7.406,6.025,13.432,13.431,13.432h16.161
		C388.689,497.994,382.664,491.968,382.664,484.562z"/>
</g>
<g>
	<path style="fill:#202121;" d="M347.878,137.535V92.472V72.267v-37.01c0-10.529,8.567-19.097,19.098-19.097h1.511
		c10.529,0,19.096,8.567,19.096,19.097v45.816c0,4.463,3.617,8.08,8.08,8.08c4.463,0,8.08-3.618,8.08-8.08V35.258
		C403.742,15.817,387.927,0,368.487,0h-1.511c-19.442,0-35.259,15.817-35.259,35.258v37.01v20.204v45.063
		c0,10.529-8.565,19.098-19.095,19.098h-1.512c-10.529,0-19.098-8.567-19.098-19.098v-24.244V82.719v-7.123
		c0-19.441-15.817-35.257-35.258-35.257h-1.508c-19.443,0-35.26,15.816-35.26,35.257v70.816v25.675v9.185
		c0,10.529-8.565,19.096-19.095,19.096h-1.511c-10.53,0-19.099-8.566-19.099-19.096v-16.56c0-4.464-3.618-8.08-8.08-8.08
		s-8.08,3.617-8.08,8.08v16.56c0,19.441,15.817,35.257,35.26,35.257h1.511c19.441,0,35.256-15.816,35.256-35.257v-9.185v-25.675
		V75.597c0-10.528,8.569-19.096,19.099-19.096h1.508c10.529,0,19.097,8.566,19.097,19.096v7.123v30.572v24.244
		c0,19.442,15.817,35.259,35.259,35.259h1.512C332.062,172.794,347.878,156.977,347.878,137.535z"/>
	<path style="fill:#202121;" d="M167.099,234.309h-42.678V130.28c0-10.529,8.566-19.098,19.097-19.098h1.51
		c10.528,0,19.095,8.567,19.095,19.098v8.973c0,4.463,3.618,8.08,8.08,8.08s8.08-3.618,8.08-8.08v-8.973
		c0-19.442-15.815-35.259-35.256-35.259h-1.51c-19.441,0-35.258,15.817-35.258,35.259v104.029H65.581c-4.463,0-8.08,3.617-8.08,8.08
		v44.864c0,4.464,3.618,8.08,8.08,8.08h5.469c4.669,5.104,15.813,20.146,7.043,39.968c-0.158,0.358-0.279,0.722-0.381,1.087
		c-2.865,4.332-4.538,9.519-4.538,15.09v133.083c0,15.129,12.309,27.438,27.439,27.438h31.456c15.129,0,27.437-12.309,27.437-27.438
		V351.479c0-5.568-1.672-10.751-4.533-15.082c-0.103-0.368-0.224-0.736-0.384-1.096c-8.789-19.862,2.312-34.831,7.035-39.967h5.474
		c4.463,0,8.08-3.617,8.08-8.08v-44.864C175.179,237.927,171.561,234.309,167.099,234.309z M73.662,250.47h85.357v28.703H73.662
		V250.47z M143.344,484.562c0,6.218-5.058,11.277-11.276,11.277h-31.456c-6.219,0-11.278-5.058-11.278-11.277V351.479
		c0-6.219,5.059-11.279,11.278-11.279h31.456c6.218,0,11.276,5.059,11.276,11.279V484.562z M135.306,324.237
		c-1.063-0.126-2.142-0.197-3.238-0.197h-31.456c-1.097,0-2.175,0.072-3.239,0.197c0.827-11.208-2.271-21.131-6.538-28.903h51.006
		C137.576,303.106,134.477,313.029,135.306,324.237z"/>
	<path style="fill:#202121;" d="M446.421,234.309h-42.678V109.086c0-4.464-3.618-8.08-8.08-8.08c-4.464,0-8.08,3.617-8.08,8.08
		v125.222h-42.677c-4.464,0-8.08,3.617-8.08,8.08v44.864c0,4.464,3.617,8.08,8.08,8.08h5.469
		c4.669,5.104,15.812,20.145,7.041,39.967c-0.159,0.36-0.28,0.725-0.384,1.092c-2.863,4.332-4.535,9.517-4.535,15.087v133.083
		c0,15.129,12.308,27.438,27.437,27.438h31.456c15.13,0,27.439-12.309,27.439-27.438V351.479c0-5.571-1.673-10.757-4.537-15.089
		c-0.103-0.366-0.224-0.73-0.383-1.089c-8.787-19.863,2.315-34.832,7.04-39.968h5.471c4.464,0,8.08-3.617,8.08-8.08v-44.864
		C454.502,237.927,450.884,234.309,446.421,234.309z M352.985,250.47h85.356v28.703h-85.356V250.47z M422.668,484.562
		c0,6.218-5.058,11.277-11.278,11.277h-31.456c-6.217,0-11.276-5.058-11.276-11.277V351.479c0-6.219,5.058-11.279,11.276-11.279
		h31.456c6.219,0,11.278,5.059,11.278,11.279V484.562z M414.63,324.237c-1.063-0.126-2.144-0.198-3.241-0.198h-31.456
		c-1.096,0-2.175,0.072-3.238,0.197c0.829-11.208-2.27-21.131-6.537-28.903h51.008C416.9,303.106,413.802,313.029,414.63,324.237z"
		/>
</g>
<g>
</g>
<g>
</g>
<g>
</g>
<g>
</g>
<g>
</g>
<g>
</g>
<g>
</g>
<g>
</g>
<g>
</g>
<g>
</g>
<g>
</g>
<g>
</g>
<g>
</g>
<g>
</g>
<g>
</g>
</svg>
