<?xml version="1.0" encoding="iso-8859-1"?>
<!-- Generator: Adobe Illustrator 19.0.0, SVG Export Plug-In . SVG Version: 6.00 Build 0)  -->
<svg version="1.1" id="Layer_1" xmlns="http://www.w3.org/2000/svg" xmlns:xlink="http://www.w3.org/1999/xlink" x="0px" y="0px"
	 viewBox="0 0 512.002 512.002" style="enable-background:new 0 0 512.002 512.002;" xml:space="preserve">
<g>
	<rect x="55.937" y="153.763" style="fill:#485D6D;" width="38.453" height="204.477"/>
	<path style="fill:#485D6D;" d="M14.013,256.001c0,13.376,10.882,24.258,24.258,24.258h5.811v-48.516h-5.811
		C24.895,231.743,14.013,242.624,14.013,256.001z"/>
	<rect x="156.554" y="231.748" style="fill:#485D6D;" width="34.536" height="48.516"/>
	<rect x="320.901" y="231.748" style="fill:#485D6D;" width="34.536" height="48.516"/>
	<rect x="417.61" y="153.763" style="fill:#485D6D;" width="38.453" height="204.477"/>
	<path style="fill:#485D6D;" d="M473.729,231.743h-5.811v48.516h5.811c13.376,0,24.258-10.882,24.258-24.258
		C497.987,242.624,487.105,231.743,473.729,231.743z"/>
	<rect x="367.304" y="105.128" style="fill:#485D6D;" width="44.377" height="301.747"/>
	<rect x="100.32" y="105.128" style="fill:#485D6D;" width="44.377" height="301.747"/>
</g>
<g style="opacity:0.19;">
	<polygon style="fill:#202121;" points="71.028,169.931 94.39,169.931 94.39,153.763 55.937,153.763 55.937,358.239 71.028,358.239 
			"/>
</g>
<g style="opacity:0.19;">
	<path style="fill:#202121;" d="M29.103,272.17c0-10.089,6.194-18.758,14.977-22.41v-18.017H38.27
		c-13.375,0-24.257,10.881-24.257,24.258c0,10.487,6.689,19.438,16.024,22.817C29.434,276.703,29.103,274.474,29.103,272.17z"/>
</g>
<g style="opacity:0.19;">
	<polygon style="fill:#202121;" points="432.7,169.931 456.061,169.931 456.061,153.763 417.61,153.763 417.61,358.239 
		432.7,358.239 	"/>
</g>
<g style="opacity:0.19;">
	<path style="fill:#202121;" d="M483.009,247.911h5.811c2.89,0,5.661,0.51,8.234,1.441c-2.898-10.153-12.254-17.61-23.325-17.61
		h-5.811v48.516h5.811c3.287,0,6.419-0.66,9.28-1.849V247.911z"/>
</g>
<g style="opacity:0.19;">
	<polygon style="fill:#202121;" points="382.39,121.298 405.753,121.298 405.753,105.13 367.3,105.13 367.3,406.871 382.39,406.871 
			"/>
</g>
<g style="opacity:0.19;">
	<polygon style="fill:#202121;" points="121.338,121.298 144.7,121.298 144.7,105.13 106.247,105.13 106.247,406.871 
		121.338,406.871 	"/>
</g>
<path style="fill:#202121;" d="M473.729,217.73h-3.655v-69.896c0-4.466-3.618-8.084-8.084-8.084h-50.309
	c-4.466,0-8.084,3.618-8.084,8.084v155.23v61.104v40.548h-34.141v-118.53v-60.373V107.286h34.141v14.332
	c0,4.466,3.618,8.084,8.084,8.084s8.084-3.618,8.084-8.084V99.202c0-4.466-3.618-8.084-8.084-8.084h-50.31
	c-4.466,0-8.084,3.619-8.084,8.084V217.73h-38.312H197.024h-38.312V99.202c0-4.466-3.618-8.084-8.084-8.084h-50.31
	c-4.466,0-8.084,3.619-8.084,8.084v40.548H50.009c-4.466,0-8.084,3.618-8.084,8.084v69.896H38.27C17.169,217.73,0,234.898,0,256.001
	c0,21.102,17.169,38.271,38.271,38.271h3.655v69.896c0,4.466,3.618,8.084,8.084,8.084h50.31c4.466,0,8.084-3.618,8.084-8.084v-21.94
	V147.834v-40.548h34.141v118.529v60.373v118.529h-34.141v-13.984c0-4.466-3.618-8.084-8.084-8.084c-4.466,0-8.084,3.618-8.084,8.084
	v22.068c0,4.466,3.619,8.084,8.084,8.084h50.31c4.466,0,8.084-3.618,8.084-8.084v-118.53h38.312h117.951h38.312V412.8
	c0,4.466,3.618,8.084,8.084,8.084h50.31c4.466,0,8.084-3.618,8.084-8.084v-40.548h42.226c4.466,0,8.084-3.618,8.084-8.084v-69.896
	h3.655c21.102,0,38.271-17.169,38.271-38.271C512,234.898,494.831,217.73,473.729,217.73z M41.925,278.102H38.27
	c-12.187,0-22.101-9.914-22.101-22.101s9.914-22.102,22.102-22.102h3.655v44.203H41.925z M92.235,342.227v13.855H58.093v-69.896
	v-60.373v-69.895h34.141V342.227z M188.94,278.102h-30.227v-44.205h30.227V278.102z M306.891,278.102H205.109v-44.205h101.783
	V278.102z M353.287,278.102H323.06v-44.205h30.227V278.102z M453.906,225.815v60.373v69.896h-34.14v-53.02V155.918h34.141v69.896
	H453.906z M473.729,278.102h-3.655v-44.205h3.655c12.188,0,22.102,9.914,22.102,22.102
	C495.832,268.188,485.917,278.102,473.729,278.102z"/>
<rect x="205.113" y="233.904" style="fill:#C9D1E3;" width="101.786" height="44.205"/>
<g style="opacity:0.19;">
	<polygon style="fill:#202121;" points="361.371,225.815 173.827,225.815 150.629,225.815 150.629,248.45 150.629,286.187 
		173.827,286.187 173.827,248.45 361.371,248.45 	"/>
</g>
<g>
</g>
<g>
</g>
<g>
</g>
<g>
</g>
<g>
</g>
<g>
</g>
<g>
</g>
<g>
</g>
<g>
</g>
<g>
</g>
<g>
</g>
<g>
</g>
<g>
</g>
<g>
</g>
<g>
</g>
</svg>
